<mxfile host="app.diagrams.net" modified="2023-05-31T12:46:38.696Z" agent="Mozilla/5.0 (Windows NT 10.0; Win64; x64) AppleWebKit/537.36 (KHTML, like Gecko) Chrome/113.0.0.0 Safari/537.36" etag="HbLu_buIxhX-PWdH9ulH" version="21.3.5" type="github">
  <diagram name="第 1 页" id="XvecHCqgzDepBgVfU89Z">
    <mxGraphModel dx="1050" dy="580" grid="1" gridSize="10" guides="1" tooltips="1" connect="1" arrows="1" fold="1" page="1" pageScale="1" pageWidth="300000" pageHeight="30000" math="0" shadow="0">
      <root>
        <mxCell id="0" />
        <mxCell id="1" parent="0" />
        <mxCell id="jbIVQgTTkQVLzcdkJnoa-3" value="1：n" style="edgeStyle=orthogonalEdgeStyle;rounded=0;orthogonalLoop=1;jettySize=auto;html=1;" parent="1" source="jbIVQgTTkQVLzcdkJnoa-1" target="jbIVQgTTkQVLzcdkJnoa-2" edge="1">
          <mxGeometry relative="1" as="geometry" />
        </mxCell>
        <mxCell id="jbIVQgTTkQVLzcdkJnoa-1" value="&lt;div style=&quot;box-sizing:border-box;width:100%;background:#e4e4e4;padding:2px;&quot;&gt;报告规则&lt;/div&gt;&lt;table style=&quot;width:100%;font-size:1em;&quot; cellpadding=&quot;2&quot; cellspacing=&quot;0&quot;&gt;&lt;tbody&gt;&lt;tr&gt;&lt;td&gt;PK&lt;/td&gt;&lt;td&gt;规则Id&lt;/td&gt;&lt;/tr&gt;&lt;tr&gt;&lt;td&gt;&lt;br&gt;&lt;/td&gt;&lt;td&gt;规则名称&lt;br&gt;……&lt;/td&gt;&lt;/tr&gt;&lt;tr&gt;&lt;td&gt;&lt;/td&gt;&lt;td&gt;&lt;br&gt;&lt;/td&gt;&lt;/tr&gt;&lt;/tbody&gt;&lt;/table&gt;" style="verticalAlign=top;align=left;overflow=fill;html=1;" parent="1" vertex="1">
          <mxGeometry x="110" y="80" width="180" height="90" as="geometry" />
        </mxCell>
        <mxCell id="jbIVQgTTkQVLzcdkJnoa-2" value="&lt;div style=&quot;box-sizing:border-box;width:100%;background:#e4e4e4;padding:2px;&quot;&gt;报告推送记录&lt;/div&gt;&lt;table style=&quot;width:100%;font-size:1em;&quot; cellpadding=&quot;2&quot; cellspacing=&quot;0&quot;&gt;&lt;tbody&gt;&lt;tr&gt;&lt;td&gt;PK&lt;/td&gt;&lt;td&gt;记录Id&lt;/td&gt;&lt;/tr&gt;&lt;tr&gt;&lt;td&gt;&lt;br&gt;&lt;/td&gt;&lt;td&gt;规则Id&lt;br&gt;批次Id&lt;br&gt;接收人&lt;br&gt;……&lt;/td&gt;&lt;/tr&gt;&lt;tr&gt;&lt;td&gt;&lt;/td&gt;&lt;td&gt;&lt;br&gt;&lt;/td&gt;&lt;/tr&gt;&lt;/tbody&gt;&lt;/table&gt;" style="verticalAlign=top;align=left;overflow=fill;html=1;" parent="1" vertex="1">
          <mxGeometry x="420" y="75" width="180" height="100" as="geometry" />
        </mxCell>
        <mxCell id="XmsY2HfjvHPbjtt5jqje-5" value="" style="edgeStyle=orthogonalEdgeStyle;rounded=0;orthogonalLoop=1;jettySize=auto;html=1;" edge="1" parent="1" source="XmsY2HfjvHPbjtt5jqje-1" target="XmsY2HfjvHPbjtt5jqje-2">
          <mxGeometry relative="1" as="geometry" />
        </mxCell>
        <mxCell id="XmsY2HfjvHPbjtt5jqje-1" value="获取AppName" style="rounded=1;whiteSpace=wrap;html=1;" vertex="1" parent="1">
          <mxGeometry x="260" y="240" width="100" height="40" as="geometry" />
        </mxCell>
        <mxCell id="XmsY2HfjvHPbjtt5jqje-6" value="" style="edgeStyle=orthogonalEdgeStyle;rounded=0;orthogonalLoop=1;jettySize=auto;html=1;" edge="1" parent="1" source="XmsY2HfjvHPbjtt5jqje-2" target="XmsY2HfjvHPbjtt5jqje-3">
          <mxGeometry relative="1" as="geometry" />
        </mxCell>
        <mxCell id="XmsY2HfjvHPbjtt5jqje-2" value="日程下的OIdScheduleType" style="rounded=0;whiteSpace=wrap;html=1;" vertex="1" parent="1">
          <mxGeometry x="252.5" y="320" width="115" height="40" as="geometry" />
        </mxCell>
        <mxCell id="XmsY2HfjvHPbjtt5jqje-7" value="" style="edgeStyle=orthogonalEdgeStyle;rounded=0;orthogonalLoop=1;jettySize=auto;html=1;" edge="1" parent="1" source="XmsY2HfjvHPbjtt5jqje-3" target="XmsY2HfjvHPbjtt5jqje-4">
          <mxGeometry relative="1" as="geometry" />
        </mxCell>
        <mxCell id="XmsY2HfjvHPbjtt5jqje-3" value="日程类型获取AppId" style="rounded=0;whiteSpace=wrap;html=1;" vertex="1" parent="1">
          <mxGeometry x="252.5" y="400" width="115" height="40" as="geometry" />
        </mxCell>
        <mxCell id="XmsY2HfjvHPbjtt5jqje-4" value="远程配置取AppName" style="rounded=0;whiteSpace=wrap;html=1;" vertex="1" parent="1">
          <mxGeometry x="252.5" y="480" width="115" height="40" as="geometry" />
        </mxCell>
      </root>
    </mxGraphModel>
  </diagram>
</mxfile>
